<svg width="160" height="160" viewBox="0 0 160 160" fill="none" xmlns="http://www.w3.org/2000/svg">
<path d="M132.756 64.2238C131.636 29.1539 103.219 0.852765 68.0307 0C67.1243 0 66.3779 0.692871 66.3779 1.59893L66.3246 25.1566C66.3246 26.3291 65.4182 27.2352 64.2453 27.2885C29.1636 28.3544 0.853049 56.8155 0 91.992C0 92.8981 0.693102 93.6442 1.59947 93.6442L25.1116 93.6975C26.2846 93.6975 27.1909 94.6036 27.2443 95.7761C28.3639 130.846 56.8344 159.147 91.9693 160C92.8757 160 93.6221 159.307 93.6221 158.401L93.6754 134.843C93.6754 133.671 94.5818 132.765 95.7548 132.712C130.836 131.592 159.147 103.131 160 68.008C160 67.1019 159.307 66.3558 158.401 66.3558L134.888 66.3025C133.715 66.3025 132.809 65.3964 132.756 64.2238ZM91.3296 132.552C71.3895 131.379 55.3949 115.177 54.6485 95.1366C54.5951 94.2838 53.902 93.5909 53.049 93.5909L29.5901 93.5376C28.3639 93.5376 27.4042 92.525 27.4575 91.2991C28.6305 71.3658 44.8384 55.3764 64.885 54.6302C65.7381 54.5769 66.4312 53.8841 66.4312 53.0313L66.4845 29.527C66.4845 28.3011 67.4975 27.3418 68.7238 27.3951C88.6638 28.5676 104.658 44.7702 105.405 64.8101C105.458 65.6629 106.151 66.3558 107.004 66.3558L130.463 66.4091C131.689 66.4091 132.649 67.4217 132.596 68.6476C131.423 89.1139 114.415 105.37 93.6754 105.37L93.6221 130.42C93.5688 131.646 92.5558 132.605 91.3296 132.552Z" fill="#DC2626"/>
<path fill-rule="evenodd" clip-rule="evenodd" d="M65.6812 65.8207C65.6812 62.5958 69.1387 60.5514 71.9644 62.1056L98.0613 76.4589C100.99 78.0697 100.99 82.2782 98.0613 83.8891L71.9644 98.2424C69.1387 99.7966 65.6812 97.7522 65.6812 94.5273V65.8207Z" fill="white"/>
</svg>
